<svg width="520" height="330" viewBox="0 0 520 330" fill="none" xmlns="http://www.w3.org/2000/svg">
<rect width="520" height="330" rx="24" fill="#F8FAFC"/>
<circle cx="374" cy="101" r="72" fill="#3BBBEA" opacity=".25"/>
<path d="M123 236h278" stroke="#D9E8F5" stroke-width="12" stroke-linecap="round"/>
<path d="M160 234l67-125 59 125H160z" fill="#0E296B"/>
<path d="M237 234l79-151 82 151H237z" fill="#1478C9"/>
<path d="M267 142l49-59 31 58-38-22-42 23z" fill="white"/>
<circle cx="150" cy="144" r="24" fill="#3BBBEA"/>
<path d="M138 145l9 10 18-23" stroke="white" stroke-width="7" stroke-linecap="round" stroke-linejoin="round"/>
<rect x="78" y="69" width="142" height="42" rx="21" fill="white" stroke="#D9E8F5" stroke-width="3"/>
<text x="102" y="96" font-family="Arial, sans-serif" font-size="15" font-weight="700" fill="#0E296B">Certified</text>
<rect x="307" y="57" width="130" height="42" rx="21" fill="white" stroke="#D9E8F5" stroke-width="3"/>
<text x="331" y="84" font-family="Arial, sans-serif" font-size="15" font-weight="700" fill="#0E296B">Trusted</text>
<circle cx="106" cy="208" r="14" fill="#3BBBEA"/>
<circle cx="129" cy="185" r="10" fill="#0E296B"/>
<circle cx="420" cy="198" r="14" fill="#3BBBEA"/>
<circle cx="397" cy="173" r="10" fill="#0E296B"/>
<text x="66" y="43" font-family="Arial, sans-serif" font-size="18" font-weight="700" fill="#0E296B">Governed Experience</text>
</svg>
